# This file uses centimeters as units for non-parametric coordinates.

mtllib terrain.mtl
g default
v -60 -0 60
v 0 0 60
v 60 -0 60
v -60 0 0
v 0 0 0
v 60 0 0
v -60 0 -60
v 0 0 -60
v 60 0 -60
vt 0.000000 0.000000
vt 0.500000 0.000000
vt 1.000000 0.000000
vt 0.000000 0.500000
vt 0.500000 0.500000
vt 1.000000 0.500000
vt 0.000000 1.000000
vt 0.500000 1.000000
vt 1.000000 1.000000
vn 0.000000 1.000000 0.000000
vn 0.000000 1.000000 0.000000
vn 0.000000 1.000000 0.000000
vn 0.000000 1.000000 0.000000
vn 0.000000 1.000000 0.000000
vn 0.000000 1.000000 0.000000
vn 0.000000 1.000000 0.000000
vn 0.000000 1.000000 0.000000
vn 0.000000 1.000000 0.000000
s 1
g mtnValleyGeo_4k
usemtl blinn1SG
f 1/1/1 2/2/2 5/5/5 4/4/4
f 2/2/2 3/3/3 6/6/6 5/5/5
f 4/4/4 5/5/5 8/8/8 7/7/7
f 5/5/5 6/6/6 9/9/9 8/8/8
